<svg width="60" height="60" viewBox="0 0 60 60" fill="none" xmlns="http://www.w3.org/2000/svg">
<path fill-rule="evenodd" clip-rule="evenodd" d="M10.6363 59.998H49.3645C51.2127 59.998 52.716 58.4947 52.716 56.6469V26.2349H7.28551V56.6469C7.28551 58.4947 8.78844 59.998 10.6363 59.998ZM13.8221 36.7853H21.6842C22.0723 36.7853 22.3873 36.4703 22.3873 36.0822V30.538C22.3873 30.1499 22.0723 29.8349 21.6842 29.8349H13.8221C13.434 29.8349 13.119 30.1499 13.119 30.538V36.0822C13.119 36.4699 13.434 36.7853 13.8221 36.7853ZM26.0699 36.7853H33.9316C34.3201 36.7853 34.6347 36.4703 34.6347 36.0822V30.538C34.6347 30.1499 34.3197 29.8349 33.9316 29.8349H26.0699C25.6818 29.8349 25.3668 30.1499 25.3668 30.538V36.0822C25.3668 36.4699 25.6818 36.7853 26.0699 36.7853ZM38.317 36.7853H46.1787C46.5668 36.7853 46.8818 36.4703 46.8818 36.0822V30.538C46.8818 30.1499 46.5668 29.8349 46.1787 29.8349H38.317C37.9292 29.8349 37.6139 30.1499 37.6139 30.538V36.0822C37.6139 36.4699 37.9289 36.7853 38.317 36.7853ZM13.8218 45.8887H21.6838C22.0719 45.8887 22.3869 45.573 22.3869 45.1856V39.6411C22.3869 39.2533 22.0719 38.9379 21.6838 38.9379H13.8218C13.4337 38.9379 13.1187 39.2529 13.1187 39.6411V45.1856C13.1187 45.5733 13.4337 45.8887 13.8218 45.8887ZM26.0696 45.8887H33.9312C34.3197 45.8887 34.6344 45.573 34.6344 45.1856V39.6411C34.6344 39.2533 34.3194 38.9379 33.9312 38.9379H26.0696C25.6814 38.9379 25.3664 39.2529 25.3664 39.6411V45.1856C25.3664 45.5733 25.6814 45.8887 26.0696 45.8887ZM13.8218 54.9917H21.6838C22.0719 54.9917 22.3869 54.676 22.3869 54.2886V48.7441C22.3869 48.3563 22.0719 48.041 21.6838 48.041H13.8218C13.4337 48.041 13.1187 48.356 13.1187 48.7441V54.2886C13.1187 54.6764 13.4337 54.9917 13.8218 54.9917ZM26.0696 54.9917H33.9312C34.3197 54.9917 34.6344 54.676 34.6344 54.2886V48.7441C34.6344 48.3563 34.3194 48.041 33.9312 48.041H26.0696C25.6814 48.041 25.3664 48.356 25.3664 48.7441V54.2886C25.3664 54.6764 25.6814 54.9917 26.0696 54.9917ZM38.3163 54.9917H46.1783C46.5664 54.9917 46.8814 54.676 46.8814 54.2883V39.6414C46.8814 39.2536 46.5664 38.9383 46.1783 38.9383L38.3163 38.9386C37.9285 38.9386 37.6132 39.2536 37.6132 39.6418V54.2886C37.6132 54.6764 37.9282 54.9917 38.3163 54.9917ZM45.4752 53.5851H39.0201V40.3449H45.4752V53.5851ZM7.28516 3.35368V24.829H52.716V3.35368C52.716 1.50622 51.2124 0.00292969 49.3645 0.00292969H10.6359C8.78844 0.00292969 7.28516 1.50587 7.28516 3.35368ZM15.3363 19.9457H44.6641C45.6359 19.9457 46.4265 19.1551 46.4262 18.1837V8.0548C46.4262 7.08307 45.6359 6.29276 44.6641 6.29276L15.3363 6.29241C14.3649 6.29241 13.5743 7.08308 13.5743 8.05445V18.1837C13.5743 19.1551 14.3649 19.9457 15.3363 19.9457Z" fill="#346B04"/>
<g opacity="0.6">
<path d="M20.9815 35.3791H14.5257V31.2412H20.9815V35.3791Z" fill="#346B04"/>
<path d="M33.2293 35.3791H26.7735V31.2412H33.2293V35.3791Z" fill="#346B04"/>
<path d="M20.9812 44.4822H14.5254V40.3439H20.9812V44.4822Z" fill="#346B04"/>
<path d="M33.2289 44.4822H26.7732V40.3439H33.2289V44.4822Z" fill="#346B04"/>
<path d="M20.9812 53.5852H14.5254V49.4469H20.9812V53.5852Z" fill="#346B04"/>
<path d="M33.2289 53.5852H26.7732V49.4469H33.2289V53.5852Z" fill="#346B04"/>
</g>
<path opacity="0.6" d="M45.4756 35.3791H39.0205V31.2412H45.4756V35.3791Z" fill="#346B04"/>
<path opacity="0.6" fill-rule="evenodd" clip-rule="evenodd" d="M40.8184 17.4278C39.0472 17.4278 37.6055 15.9878 37.6055 14.2163V11.3587C37.6055 7.13119 44.0303 7.13225 44.0303 11.3587V14.2163C44.0303 15.9878 42.5896 17.4278 40.8181 17.4278H40.8184ZM40.8184 10.7245C40.469 10.7245 40.1842 11.0093 40.1842 11.3587V14.2166C40.1842 15.0533 41.4523 15.054 41.4523 14.2166V11.3587C41.4523 11.0096 41.1682 10.7245 40.8188 10.7245H40.8184Z" fill="#346B04"/>
</svg>
