<svg width="60" height="60" viewBox="0 0 60 60" fill="none" xmlns="http://www.w3.org/2000/svg">
<path opacity="0.6" d="M43.5844 43.7553C42.4917 43.7553 41.4225 43.6261 40.3885 43.3911L40.0596 53.5193V53.6368C40.0596 55.5637 41.6339 57.1382 43.5844 57.1382C45.5701 57.1382 47.1563 55.4932 47.0975 53.5193L46.7568 43.3911C45.7346 43.6261 44.6771 43.7553 43.5844 43.7553Z" fill="#346B04"/>
<path opacity="0.6" d="M55.3338 29.6497C55.3338 23.1528 50.0706 17.8896 43.5854 17.8896C37.0885 17.8896 31.8252 23.1528 31.8252 29.6497C31.8252 36.1349 37.0885 41.4099 43.5854 41.4099C50.0706 41.4099 55.3338 36.1349 55.3338 29.6497ZM41.4933 34.8156C40.8651 34.8156 40.2748 34.5712 39.8312 34.1266L37.4974 31.7927C37.0384 31.3337 37.0384 30.5902 37.4974 30.1312C37.9564 29.6723 38.6999 29.6723 39.1589 30.1312L41.4933 32.4657L48.0004 25.9586C48.4594 25.4996 49.2029 25.4996 49.6619 25.9586C50.1208 26.4176 50.1208 27.1611 49.6619 27.6201L43.1548 34.1271C42.7107 34.5712 42.121 34.8156 41.4933 34.8156Z" fill="#346B04"/>
<path d="M21.9604 2.86182H5.30006C3.93783 2.86182 2.83008 3.96957 2.83008 5.3318V10.7108H21.9604V2.86182ZM7.80924 8.01766H7.32079C6.63877 8.01766 6.0858 7.46469 6.0858 6.78267C6.0858 6.10065 6.63877 5.54768 7.32079 5.54768H7.80924C8.49126 5.54768 9.04423 6.10065 9.04423 6.78267C9.04423 7.46469 8.49126 8.01766 7.80924 8.01766ZM12.6389 8.01766H12.1498C11.4678 8.01766 10.9148 7.46469 10.9148 6.78267C10.9148 6.10065 11.4678 5.54768 12.1498 5.54768H12.6389C13.3209 5.54768 13.8738 6.10065 13.8738 6.78267C13.8738 7.46469 13.3209 8.01766 12.6389 8.01766ZM17.4685 8.01766H16.9794C16.2974 8.01766 15.7444 7.46469 15.7444 6.78267C15.7444 6.10065 16.2974 5.54768 16.9794 5.54768H17.4685C18.1505 5.54768 18.7035 6.10065 18.7035 6.78267C18.7035 7.46469 18.1505 8.01766 17.4685 8.01766Z" fill="#346B04"/>
<path d="M57.1628 5.32456C57.1628 4.64488 56.8865 4.02867 56.4407 3.58175C55.9939 3.13725 55.3788 2.86182 54.7 2.86182H24.4307V10.7108H57.1628V5.32456ZM51.337 8.01766H30.2559C29.5738 8.01766 29.0209 7.46469 29.0209 6.78267C29.0209 6.10065 29.5738 5.54768 30.2559 5.54768H51.337C52.019 5.54768 52.5719 6.10065 52.5719 6.78267C52.5719 7.46469 52.019 8.01766 51.337 8.01766Z" fill="#346B04"/>
<path opacity="0.6" d="M7.77051 28.6724H11.4022V32.2916H7.77051V28.6724Z" fill="#346B04"/>
<path opacity="0.6" d="M7.77051 18.127H11.4022V21.7462H7.77051V18.127Z" fill="#346B04"/>
<path opacity="0.6" d="M7.77051 39.2188H11.4022V42.838H7.77051V39.2188Z" fill="#346B04"/>
<path d="M49.2041 42.7037L49.377 47.7794H54.6998C56.0583 47.7794 57.1698 46.6679 57.1698 45.3095V33.8364C55.9472 37.8254 53.0079 41.0735 49.2041 42.7037Z" fill="#346B04"/>
<path d="M2.83008 13.1748V45.3093C2.83008 46.6678 3.9416 47.7793 5.30006 47.7793H37.7803L37.9409 42.7035C32.8898 40.5175 29.3577 35.4788 29.3577 29.6496C29.3577 21.8074 35.7426 15.4225 43.5848 15.4225C49.9697 15.4225 55.3789 19.6585 57.1697 25.463V13.1748L2.83008 13.1748ZM17.9958 17.0527H26.3814C27.0606 17.0527 27.6164 17.6085 27.6164 18.2877C27.6164 18.9669 27.0606 19.5227 26.3814 19.5227H17.9958C17.3165 19.5227 16.7608 18.9669 16.7608 18.2877C16.7608 17.6085 17.3165 17.0527 17.9958 17.0527ZM17.9958 21.7457H24.9982C25.6774 21.7457 26.2332 22.3014 26.2332 22.9806C26.2332 23.6599 25.6774 24.2156 24.9982 24.2156H17.9958C17.3165 24.2156 16.7608 23.6599 16.7608 22.9806C16.7608 22.3014 17.3165 21.7457 17.9958 21.7457ZM17.9958 27.5995H23.8249C24.5042 27.5995 25.0599 28.1553 25.0599 28.8345C25.0599 29.5138 24.5042 30.0695 23.8249 30.0695H17.9958C17.3165 30.0695 16.7608 29.5138 16.7608 28.8345C16.7608 28.1553 17.3165 27.5995 17.9958 27.5995ZM17.9958 32.2925H24.356C25.0352 32.2925 25.591 32.8482 25.591 33.5275C25.591 34.2067 25.0352 34.7625 24.356 34.7625H17.9958C17.3165 34.7625 16.7608 34.2067 16.7608 33.5275C16.7608 32.8482 17.3165 32.2925 17.9958 32.2925ZM17.9958 38.1464H26.3814C27.0606 38.1464 27.6164 38.7021 27.6164 39.3814C27.6164 40.0606 27.0606 40.6164 26.3814 40.6164H17.9958C17.3165 40.6164 16.7608 40.0606 16.7608 39.3814C16.7608 38.7021 17.3165 38.1464 17.9958 38.1464ZM13.8709 42.8393C13.8709 44.1978 12.7594 45.3093 11.4009 45.3093H7.77004C6.41158 45.3093 5.30006 44.1978 5.30006 42.8393V39.2208C5.30006 37.8623 6.41158 36.7508 7.77004 36.7508H11.4009C12.7594 36.7508 13.8709 37.8623 13.8709 39.2208V42.8393ZM13.8709 32.2925C13.8709 33.651 12.7594 34.7625 11.4009 34.7625H7.77004C6.41158 34.7625 5.30006 33.651 5.30006 32.2925V28.6739C5.30006 27.3155 6.41158 26.204 7.77004 26.204H11.4009C12.7594 26.204 13.8709 27.3155 13.8709 28.6739V32.2925ZM13.8709 21.7457C13.8709 23.1042 12.7594 24.2156 11.4009 24.2156H7.77004C6.41158 24.2156 5.30006 23.1042 5.30006 21.7457V18.1271C5.30006 16.7687 6.41158 15.6572 7.77004 15.6572H11.4009C12.7594 15.6572 13.8709 16.7687 13.8709 18.1271V21.7457ZM31.0002 42.8393C31.6795 42.8393 32.2352 43.3951 32.2352 44.0743C32.2352 44.7535 31.6795 45.3093 31.0002 45.3093H17.9958C17.3165 45.3093 16.7608 44.7535 16.7608 44.0743C16.7608 43.3951 17.3165 42.8393 17.9958 42.8393H31.0002Z" fill="#346B04"/>
</svg>
