<svg width="30" height="31" viewBox="0 0 30 31" fill="none" xmlns="http://www.w3.org/2000/svg">
<path d="M15 30.6667C23.2863 30.6667 30 23.953 30 15.6667C30 7.3805 23.2863 0.666748 15 0.666748C6.71375 0.666748 0 7.3805 0 15.6667C0 23.953 6.71375 30.6667 15 30.6667ZM6.86375 15.3417L21.3263 9.7655C21.9975 9.523 22.5837 9.92925 22.3662 10.9442L22.3675 10.943L19.905 22.5442C19.7225 23.3667 19.2337 23.5667 18.55 23.1792L14.8 20.4155L12.9912 22.158C12.7912 22.358 12.6225 22.5267 12.235 22.5267L12.5013 18.7105L19.4513 12.4317C19.7537 12.1655 19.3837 12.0155 18.985 12.2805L10.3963 17.688L6.69375 16.533C5.89 16.278 5.8725 15.7292 6.86375 15.3417Z" fill="#080A07"/>
</svg>
