<svg width="46" height="46" viewBox="0 0 46 46" fill="none" xmlns="http://www.w3.org/2000/svg">
<g clip-path="url(#clip0_116_977)">
<path fill-rule="evenodd" clip-rule="evenodd" d="M7.90463 42.4291C7.15713 43.1758 5.5348 42.8152 4.35934 41.6406C3.80936 41.096 3.42 40.4105 3.23398 39.6593C3.0725 39.1162 3.19813 38.5282 3.56748 38.0986L13.5125 28.1593L13.5265 28.1461C13.8021 27.8815 14.1741 27.7414 14.5557 27.7584H14.5598C15.5205 27.8293 16.42 28.2568 17.0816 28.9569C18.0616 29.872 18.6317 31.5855 17.9031 32.4282L17.8562 32.4816L7.90463 42.4291ZM3.09434 6.78653C2.5218 6.46371 1.97145 6.15157 1.47859 5.84107C0.661863 5.32253 0.125791 4.46022 0.0221973 3.49835C-0.121242 2.16542 0.591998 0.887046 1.80162 0.309022C3.01124 -0.269002 4.45393 -0.0208569 5.40091 0.928103C5.5663 1.09512 5.71336 1.27934 5.83955 1.47764C6.14965 1.96727 6.45975 2.51445 6.78193 3.08296L6.7883 3.09421C7.66771 4.89327 8.86772 6.51695 10.3295 7.8856C9.90398 8.25935 9.48013 8.64871 9.06284 9.066C8.64555 9.48328 8.2562 9.90714 7.88245 10.3326C6.51505 8.87002 4.8925 7.6689 3.09434 6.78817V6.78653ZM8.45334 12.1924C9.56427 10.8181 10.817 9.56474 12.1908 8.45321C12.9861 7.71308 13.9371 7.16042 14.9738 6.83582L21.3892 13.2504L17.9786 22.9539C17.1444 23.0228 16.3439 23.3141 15.6606 23.7975L6.83759 14.9737C7.16126 13.9379 7.71343 12.9879 8.45334 12.194V12.1924ZM22.195 30.3311C22.6703 29.6513 22.9571 28.8578 23.0263 28.0311C23.8165 27.7568 24.6601 27.4676 25.5653 27.1604C27.8349 26.3883 30.374 25.5233 32.7586 24.6214L39.1657 31.0285C39.114 31.583 38.1168 33.4402 35.7732 35.7756C33.4297 38.1109 31.5839 39.113 31.0287 39.1648L22.195 30.3311ZM45.0718 45.0717C44.3973 45.7485 43.4512 46.0811 42.5016 45.9752C41.5404 45.8715 40.6788 45.3358 40.1605 44.5197C39.8503 44.03 39.5402 43.4827 39.218 42.9141L39.2117 42.9031C38.3324 41.1067 37.1339 39.4852 35.6747 38.1175C36.2571 37.6057 36.7138 37.1589 36.9364 36.9354C37.159 36.712 37.6075 36.2545 38.1201 35.6712C39.4875 37.131 41.1091 38.3298 42.9057 39.2091L43.143 39.3445C43.6318 39.6231 44.098 39.8889 44.5198 40.1571C44.7192 40.2832 44.9042 40.4305 45.0718 40.5965C46.3064 41.8328 46.3064 43.8354 45.0718 45.0717Z" fill="#346B04"/>
<path opacity="0.6" fill-rule="evenodd" clip-rule="evenodd" d="M38.4716 20.2776C40.0678 19.3901 41.5481 18.3086 42.8786 17.0576C44.7529 15.1994 45.8112 12.672 45.8201 10.0327C45.824 8.88462 45.6266 7.74476 45.2369 6.66484C45.1689 7.05316 45.0781 7.43716 44.965 7.81484C44.0705 10.441 42.5586 12.8141 40.5564 14.7346C39.1819 16.07 37.7168 17.3089 36.1716 18.4425C34.4889 19.6985 32.7365 20.8583 30.9227 21.9163L30.8406 21.9648L29.394 22.8191L29.3881 22.8231C29.3618 22.8409 29.3335 22.86 29.316 22.8692L23.5438 26.113L25.0355 25.6045C29.6355 24.0397 35.3609 22.0921 38.4716 20.2776ZM19.7915 30.5462L20.4536 29.8842C20.4711 29.8595 20.49 29.8359 20.5103 29.8135C21.693 28.6424 21.7294 26.7429 20.5924 25.5273C20.5633 25.5044 20.5358 25.4794 20.5103 25.4526C19.9625 24.8953 19.2135 24.5818 18.4321 24.5827C17.5911 24.5626 16.779 24.8894 16.1863 25.4862C16.1638 25.5088 16.14 25.53 16.1148 25.5495L15.4429 26.2231C16.5006 26.4653 17.4675 27.0035 18.2308 27.7747C19.0183 28.5203 19.5623 29.4863 19.7915 30.5462ZM43.4273 3.73398L22.2221 24.9474L22.2361 24.9646L28.4757 21.4588C28.4962 21.444 28.5184 21.4292 28.5315 21.4218L30.0512 20.5264L30.1333 20.478C31.8797 19.4562 33.5676 18.3376 35.1892 17.1274C36.6719 16.0401 38.0782 14.8522 39.3982 13.5722C41.21 11.8428 42.581 9.70431 43.3961 7.33595C43.8433 6.17888 43.8544 4.89863 43.4273 3.73398ZM21.0656 23.7809L42.265 2.57495H42.2633C40.0636 1.5342 35.8472 3.18855 32.4276 6.60241C31.1494 7.9232 29.9619 9.32886 28.8732 10.8098C27.6532 12.4446 26.5266 14.1471 25.4988 15.9092L20.9185 23.6766C20.9503 23.6972 20.9806 23.7193 21.0108 23.7414C21.0289 23.7547 21.0471 23.768 21.0656 23.7809ZM28.9455 3.1212C27.6956 4.45234 26.6134 5.93151 25.7231 7.5257C24.6767 9.36929 23.8018 11.305 23.1093 13.3086L23.1063 13.3174L23.1019 13.3308C23.0993 13.3385 23.0966 13.3462 23.0937 13.3537L20.1365 21.7676L24.0588 15.1141C25.1249 13.2875 26.2937 11.523 27.5598 9.82898C28.6951 8.28615 29.9333 6.82177 31.2661 5.44584C33.4372 3.12581 36.2441 1.49723 39.3358 0.763696C38.2709 0.379637 37.1476 0.182334 36.0156 0.180481H35.9663C33.3283 0.189369 30.8023 1.24742 28.9455 3.1212ZM0.92084 40.7467C-0.28771 41.9443 -0.298734 43.8941 0.896197 45.1052L0.892912 45.1069C2.10495 46.3025 4.05633 46.2908 5.25388 45.0806L5.96688 44.3676C4.91356 44.121 3.95327 43.577 3.2003 42.8003C2.43333 42.0389 1.89299 41.0794 1.63959 40.0288L0.92084 40.7467ZM39.218 42.914L39.2187 42.9152L45.0718 45.0716C46.3064 43.8353 46.3064 41.8327 45.0718 40.5964C44.9042 40.4304 44.7192 40.283 44.5198 40.1569C44.098 39.8887 43.6318 39.623 43.143 39.3444L42.9057 39.209C41.1091 38.3297 39.4875 37.1309 38.1201 35.6711C37.6075 36.2543 37.159 36.7119 36.9364 36.9353C36.7138 37.1587 36.2571 37.6056 35.6747 38.1173C37.1339 39.485 38.3324 41.1066 39.2117 42.903L39.218 42.914Z" fill="#346B04"/>
</g>
<defs>
<clipPath id="clip0_116_977">
<rect width="46" height="46" fill="white"/>
</clipPath>
</defs>
</svg>
