<svg width="46" height="46" viewBox="0 0 46 46" fill="none" xmlns="http://www.w3.org/2000/svg">
<g clip-path="url(#clip0_116_966)">
<path d="M45.5975 43.6518C45.5975 37.6217 43.2492 31.9531 38.9855 27.6894C37.8344 26.5383 36.5804 25.5283 35.2451 24.6649V32.78C36.6935 33.3415 37.7238 34.7488 37.7238 36.393C37.7238 38.5293 35.9859 40.2672 33.8497 40.2672C31.7134 40.2672 29.9759 38.5293 29.9759 36.393C29.9759 34.7081 31.0575 33.2717 32.5624 32.74V23.1804C32.2293 23.0249 31.8924 22.8775 31.552 22.7389C31.2884 22.9403 31.0175 23.1327 30.7395 23.3155L24.3645 32.2778V46H45.5975V43.6518ZM27.5385 41.7135C26.7868 41.7135 26.2298 41.099 26.1975 40.3721C26.1649 39.6478 26.8373 39.0308 27.5385 39.0308C28.2906 39.0308 28.8472 39.6453 28.8799 40.3721C28.9125 41.0965 28.2401 41.7135 27.5385 41.7135Z" fill="#346B04"/>
<path d="M15.3201 23.3243C15.0376 23.139 14.7625 22.9435 14.4943 22.7389C14.2971 22.8193 14.1006 22.9021 13.9054 22.9881V32.4182C16.8475 33.0895 19.0497 35.7255 19.0497 38.8676V41.2278H16.3674V38.8676C16.3674 36.6984 14.6024 34.9334 12.4332 34.9334C10.2636 34.9334 8.49866 36.6984 8.49866 38.8676V41.3702H5.81598V38.8676C5.81598 35.6325 8.15051 32.9341 11.2231 32.3638V24.3992C9.72945 25.3187 8.33231 26.4183 7.06116 27.6894C2.79744 31.9531 0.449219 37.6221 0.449219 43.6518V46H21.6818V32.276L15.3201 23.3243Z" fill="#346B04"/>
<path opacity="0.6" d="M26.0375 25.2991C25.066 25.5117 24.0578 25.6251 23.0231 25.6251C21.9903 25.6251 20.9838 25.5121 20.0137 25.3001L23.0235 29.5372L26.0375 25.2991Z" fill="#346B04"/>
<path d="M33.8497 35.2015C33.1927 35.2015 32.6582 35.7364 32.6582 36.393C32.6582 37.0504 33.1927 37.5849 33.8497 37.5849C34.5067 37.5849 35.0412 37.05 35.0412 36.393C35.0412 35.736 34.5067 35.2015 33.8497 35.2015Z" fill="#346B04"/>
<path opacity="0.6" d="M23.0231 22.853C29.3238 22.853 34.4498 17.7273 34.4498 11.4267C34.4498 5.12601 29.3238 0 23.0231 0C16.7229 0 11.5965 5.12601 11.5965 11.4267C11.5965 17.7273 16.7225 22.853 23.0231 22.853Z" fill="#346B04"/>
</g>
<defs>
<clipPath id="clip0_116_966">
<rect width="46" height="46" fill="white"/>
</clipPath>
</defs>
</svg>
