<svg width="60" height="60" viewBox="0 0 60 60" fill="none" xmlns="http://www.w3.org/2000/svg">
<g clip-path="url(#clip0_282_2967)">
<path d="M40.7141 58.9284V5.35727C40.7141 4.76538 40.2343 4.28564 39.6425 4.28564H8.57129V7.50006H9.64246C10.2343 7.50006 10.7141 7.9798 10.7141 8.57169C10.7141 9.16312 10.2343 9.64285 9.64246 9.64285H8.57129V11.7856H9.64246C10.2343 11.7856 10.7141 12.2654 10.7141 12.8573C10.7141 13.4492 10.2343 13.9284 9.64246 13.9284H8.57129V16.0717H9.64246C10.2343 16.0717 10.7141 16.551 10.7141 17.1429C10.7141 17.7347 10.2343 18.2145 9.64246 18.2145H8.57129V20.3573H9.64246C10.2343 20.3573 10.7141 20.837 10.7141 21.4284C10.7141 22.0203 10.2343 22.5001 9.64246 22.5001H8.57129V24.6429H9.64246C10.2343 24.6429 10.7141 25.1226 10.7141 25.7145C10.7141 26.3059 10.2343 26.7856 9.64246 26.7856H8.57129V28.9284H9.64246C10.2343 28.9284 10.7141 29.4082 10.7141 30.0001C10.7141 30.5919 10.2343 31.0717 9.64246 31.0717H8.57129V33.2145H9.64246C10.2343 33.2145 10.7141 33.6942 10.7141 34.2856C10.7141 34.8775 10.2343 35.3573 9.64246 35.3573H8.57129V37.5001H9.64246C10.2343 37.5001 10.7141 37.9798 10.7141 38.5717C10.7141 39.1631 10.2343 39.6429 9.64246 39.6429H8.57129V41.7856H9.64246C10.2343 41.7856 10.7141 42.2654 10.7141 42.8573C10.7141 43.4492 10.2343 43.9284 9.64246 43.9284H8.57129V46.0717H9.64246C10.2343 46.0717 10.7141 46.551 10.7141 47.1429C10.7141 47.7347 10.2343 48.2145 9.64246 48.2145H8.57129V50.3573H9.64246C10.2343 50.3573 10.7141 50.837 10.7141 51.4284C10.7141 52.0203 10.2343 52.5001 9.64246 52.5001H8.57129V54.6429H9.64246C10.2343 54.6429 10.7141 55.1226 10.7141 55.7145C10.7141 56.3059 10.2343 56.7856 9.64246 56.7856H8.57129V60.0001H39.6425C40.2343 60.0001 40.7141 59.5203 40.7141 58.9284ZM17.1425 51.4284H14.9997C14.4078 51.4284 13.928 50.9492 13.928 50.3573C13.928 49.7654 14.4078 49.2856 14.9997 49.2856H17.1425C17.7343 49.2856 18.2141 49.7654 18.2141 50.3573C18.2141 50.9492 17.7343 51.4284 17.1425 51.4284ZM14.9997 45.0001H25.7141C26.3055 45.0001 26.7852 45.4798 26.7852 46.0717C26.7852 46.6631 26.3055 47.1429 25.7141 47.1429H14.9997C14.4078 47.1429 13.928 46.6631 13.928 46.0717C13.928 45.4798 14.4078 45.0001 14.9997 45.0001ZM13.928 41.7856C13.928 41.1942 14.4078 40.7145 14.9997 40.7145H17.1425C17.7343 40.7145 18.2141 41.1942 18.2141 41.7856C18.2141 42.3775 17.7343 42.8573 17.1425 42.8573H14.9997C14.4078 42.8573 13.928 42.3775 13.928 41.7856ZM36.428 51.4284H21.428C20.8366 51.4284 20.3569 50.9492 20.3569 50.3573C20.3569 49.7654 20.8366 49.2856 21.428 49.2856H36.428C37.0199 49.2856 37.4997 49.7654 37.4997 50.3573C37.4997 50.9492 37.0199 51.4284 36.428 51.4284ZM36.428 47.1429H29.9997C29.4078 47.1429 28.928 46.6631 28.928 46.0717C28.928 45.4798 29.4078 45.0001 29.9997 45.0001H36.428C37.0199 45.0001 37.4997 45.4798 37.4997 46.0717C37.4997 46.6631 37.0199 47.1429 36.428 47.1429ZM36.428 42.8573H21.428C20.8366 42.8573 20.3569 42.3775 20.3569 41.7856C20.3569 41.1942 20.8366 40.7145 21.428 40.7145H36.428C37.0199 40.7145 37.4997 41.1942 37.4997 41.7856C37.4997 42.3775 37.0199 42.8573 36.428 42.8573ZM37.0025 25.2173C36.2326 25.9878 35.2443 26.5027 34.1717 26.6927L33.7433 30.1328L33.2077 34.4189C33.1404 34.9554 32.6835 35.3582 32.1425 35.3573H19.2852C18.7451 35.3573 18.2896 34.9549 18.2223 34.4189L17.6867 30.1328L17.2583 26.6927C14.7159 26.235 12.8633 24.0262 12.856 21.4426C12.8486 18.8595 14.6884 16.6398 17.2281 16.1678C16.7616 12.8513 18.2699 9.56641 21.0893 7.75824C23.9091 5.95053 27.5232 5.95053 30.343 7.75824C33.1624 9.56641 34.6707 12.8513 34.2038 16.1678C36.1552 16.5354 37.7437 17.9517 38.331 19.8487C38.9178 21.7457 38.4074 23.812 37.0048 25.2173H37.0025Z" fill="#346B04"/>
<path opacity="0.6" d="M20.2317 33.2146H31.1965L31.4647 31.0718H19.9639L20.2317 33.2146Z" fill="#346B04"/>
<path opacity="0.6" d="M33.2144 18.2146H33.0922L32.9851 18.221C32.178 18.2805 31.4232 18.6426 30.8711 19.2345C30.6125 19.5251 30.2165 19.6524 29.8366 19.5677C29.4571 19.4826 29.1531 19.1983 29.0433 18.8252C28.933 18.4517 29.0341 18.0484 29.3069 17.771C30.0352 16.9942 30.9801 16.454 32.0187 16.2196C32.0979 15.8177 32.1396 15.4094 32.1428 15.0002C32.1428 11.4497 29.2648 8.57178 25.7144 8.57178C22.164 8.57178 19.2856 11.4497 19.2856 15.0002C19.2902 15.4099 19.3332 15.8182 19.4142 16.2196C20.4529 16.4549 21.3972 16.9955 22.126 17.7719C22.5128 18.2063 22.4826 18.8696 22.0578 19.267C21.6335 19.6638 20.9692 19.6501 20.5618 19.2354C20.0098 18.6435 19.2549 18.2814 18.4479 18.2219L18.3408 18.2155H18.2144C16.4392 18.2155 15 19.6547 15 21.4299C15 23.2051 16.4392 24.6439 18.2144 24.6439C18.3321 24.6681 18.4502 24.6924 18.5678 24.7157C18.6305 24.74 18.6905 24.7697 18.7468 24.8059C18.8054 24.8384 18.8612 24.8759 18.913 24.9185C18.9647 24.9666 19.0118 25.0201 19.053 25.0778C19.1446 25.1826 19.2059 25.3099 19.2311 25.4468C19.2494 25.4907 19.265 25.536 19.2773 25.5827L19.6962 28.9285H31.7326L32.1515 25.5814C32.1803 25.3923 32.26 25.2147 32.3817 25.0673C32.4197 25.0151 32.4628 24.9661 32.5095 24.9217C32.5653 24.8746 32.6257 24.8338 32.6903 24.7995C32.7429 24.767 32.7979 24.7391 32.8555 24.7157C32.9283 24.6924 33.0034 24.6768 33.0794 24.67C33.1238 24.6581 33.1686 24.6494 33.2144 24.6429C34.3625 24.6429 35.4236 24.0305 35.9981 23.0357C36.5721 22.0415 36.5721 20.816 35.9981 19.8218C35.4236 18.8271 34.3625 18.2146 33.2144 18.2146Z" fill="#346B04"/>
<path d="M3.21442 60.0001H6.42838V56.7856H5.35721C4.76532 56.7856 4.28558 56.3059 4.28558 55.7145C4.28558 55.1226 4.76532 54.6429 5.35721 54.6429H6.42838V52.5001H5.35721C4.76532 52.5001 4.28558 52.0203 4.28558 51.4284C4.28558 50.837 4.76532 50.3573 5.35721 50.3573H6.42838V48.2145H5.35721C4.76532 48.2145 4.28558 47.7347 4.28558 47.1429C4.28558 46.551 4.76532 46.0717 5.35721 46.0717H6.42838V43.9284H5.35721C4.76532 43.9284 4.28558 43.4492 4.28558 42.8573C4.28558 42.2654 4.76532 41.7856 5.35721 41.7856H6.42838V39.6429H5.35721C4.76532 39.6429 4.28558 39.1631 4.28558 38.5717C4.28558 37.9798 4.76532 37.5001 5.35721 37.5001H6.42838V35.3573H5.35721C4.76532 35.3573 4.28558 34.8775 4.28558 34.2856C4.28558 33.6942 4.76532 33.2145 5.35721 33.2145H6.42838V31.0717H5.35721C4.76532 31.0717 4.28558 30.5919 4.28558 30.0001C4.28558 29.4082 4.76532 28.9284 5.35721 28.9284H6.42838V26.7856H5.35721C4.76532 26.7856 4.28558 26.3059 4.28558 25.7145C4.28558 25.1226 4.76532 24.6429 5.35721 24.6429H6.42838V22.5001H5.35721C4.76532 22.5001 4.28558 22.0203 4.28558 21.4284C4.28558 20.837 4.76532 20.3573 5.35721 20.3573H6.42838V18.2145H5.35721C4.76532 18.2145 4.28558 17.7347 4.28558 17.1429C4.28558 16.551 4.76532 16.0717 5.35721 16.0717H6.42838V13.9284H5.35721C4.76532 13.9284 4.28558 13.4492 4.28558 12.8573C4.28558 12.2654 4.76532 11.7856 5.35721 11.7856H6.42838V9.64285H5.35721C4.76532 9.64285 4.28558 9.16312 4.28558 8.57169C4.28558 7.9798 4.76532 7.50006 5.35721 7.50006H6.42838V4.28564H3.21442C1.43921 4.28564 0 5.72485 0 7.50006V56.7856C0 58.5609 1.43921 60.0001 3.21442 60.0001Z" fill="#346B04"/>
<path opacity="0.6" d="M51.8324 18.9171L51.8548 18.9258C52.9475 19.4046 54.1908 19.4046 55.2834 18.9258L55.3059 18.9171C58.0122 17.775 59.9998 14.0552 59.9998 9.64279C59.9998 4.32632 57.1168 0 53.5714 0C50.026 0 47.1426 4.32632 47.1426 9.64279C47.1426 14.0552 49.1302 17.775 51.8324 18.9171Z" fill="#346B04"/>
<path opacity="0.6" d="M52.5 21.3267V58.9283C52.5 59.5202 52.9797 59.9999 53.5716 59.9999C54.1631 59.9999 54.6428 59.5202 54.6428 58.9283V21.3267C53.9351 21.4626 53.2077 21.4626 52.5 21.3267Z" fill="#346B04"/>
</g>
<defs>
<clipPath id="clip0_282_2967">
<rect width="60" height="60" fill="white"/>
</clipPath>
</defs>
</svg>
