<svg width="46" height="46" viewBox="0 0 46 46" fill="none" xmlns="http://www.w3.org/2000/svg">
<g clip-path="url(#clip0_116_949)">
<path opacity="0.6" d="M22.7404 30.5753C22.2029 29.5433 21.2664 28.7763 20.1488 28.4527C18.8776 28.1793 17.5502 28.4585 16.4968 29.2207C15.9721 29.5557 15.3855 29.782 14.7718 29.8861V31.2053C14.7718 31.6589 14.404 32.0267 13.9503 32.0267C13.4967 32.0267 13.1289 31.6589 13.1289 31.2053V29.8861C12.5154 29.7811 11.929 29.555 11.4039 29.2207C10.6021 28.6705 9.65866 28.3631 8.68662 28.3352C8.37157 28.3345 8.05772 28.374 7.75265 28.4527C6.63477 28.7762 5.69802 29.5432 5.16022 30.5753C3.98065 32.6181 3.77119 35.6147 4.60083 38.5916C5.94304 43.4117 9.5524 46.6826 12.6459 45.8826C12.9603 45.802 13.2625 45.6799 13.5445 45.5195C13.7949 45.3784 14.1008 45.3784 14.3512 45.5195C14.6321 45.6795 14.9333 45.801 15.2465 45.8809C16.9781 46.3319 18.8699 45.5047 20.4355 43.8471C20.4626 43.8113 20.4928 43.778 20.5259 43.7477C21.8376 42.2681 22.7856 40.5024 23.2941 38.5916C24.1295 35.6147 23.92 32.6181 22.7404 30.5753ZM8.57572 31.6349C8.3245 31.7568 8.12457 31.9637 8.0114 32.2189C7.2453 33.9545 7.15998 35.9146 7.77237 37.7102C7.89417 38.1473 7.63858 38.6004 7.20147 38.7222C6.76437 38.844 6.31128 38.5884 6.18947 38.1513C5.34915 35.135 5.84447 32.6847 6.58869 31.3975C6.90713 30.7491 7.47745 30.2595 8.16665 30.043C8.60625 29.9296 9.05456 30.194 9.16797 30.6336C9.28139 31.0732 9.01696 31.5215 8.57737 31.6349H8.57572Z" fill="#346B04"/>
<path d="M36.9643 17.25H34.5C34.0464 17.25 33.6786 17.6178 33.6786 18.0714V20.5357C33.6786 20.9894 34.0464 21.3571 34.5 21.3571H36.9643C37.418 21.3571 37.7857 20.9894 37.7857 20.5357V18.0714C37.7857 17.6178 37.418 17.25 36.9643 17.25Z" fill="#346B04"/>
<path d="M12.7486 26.97C13.2414 26.8295 13.5782 26.5872 13.6439 26.3235C13.7096 26.0598 13.5256 25.6877 13.1511 25.3329C12.5454 24.8028 11.8169 24.4324 11.0318 24.2552C10.9154 24.227 10.7974 24.2056 10.6786 24.1911H10.6712C9.9399 24.1232 9.2034 24.135 8.47468 24.2264C8.12681 24.2563 7.83588 24.5029 7.74932 24.8412C7.66277 25.1794 7.79951 25.5355 8.09025 25.7288C8.77921 26.2529 9.54955 26.6602 10.3705 26.9347C11.1479 27.1442 11.9653 27.1564 12.7486 26.97Z" fill="#346B04"/>
<path d="M36.9643 26.2858H34.5C34.0464 26.2858 33.6786 26.6535 33.6786 27.1072V29.5715C33.6786 30.0251 34.0464 30.3929 34.5 30.3929H36.9643C37.418 30.3929 37.7857 30.0251 37.7857 29.5715V27.1072C37.7857 26.6535 37.418 26.2858 36.9643 26.2858Z" fill="#346B04"/>
<path opacity="0.6" d="M23.5619 11.5009L37.7857 11.5V4.10718H27.5951L23.5619 11.5009Z" fill="#346B04"/>
<path d="M36.9643 35.3214H34.5C34.0464 35.3214 33.6786 35.6892 33.6786 36.1428V38.6071C33.6786 39.0608 34.0464 39.4286 34.5 39.4286H36.9643C37.418 39.4286 37.7857 39.0608 37.7857 38.6071V36.1428C37.7857 35.6892 37.418 35.3214 36.9643 35.3214Z" fill="#346B04"/>
<path d="M39.4286 0H13.9643C12.6033 0 11.5 1.1033 11.5 2.46429V22.6821C12.5368 22.929 13.4953 23.4317 14.2879 24.1443C14.3941 24.2456 14.4945 24.3528 14.5886 24.4654C15.2798 23.4581 16.2531 22.6774 17.3864 22.2213C17.8106 22.0937 18.2596 22.3256 18.4012 22.7453C18.5428 23.1651 18.3261 23.6215 17.9113 23.7771C17.7889 23.8206 15.4034 24.7151 14.881 28.1734C15.137 28.0956 15.3813 27.9834 15.6071 27.8399C17.0435 26.8246 18.844 26.4686 20.5587 26.8607C22.1054 27.2913 23.4081 28.3369 24.1631 29.7538C25.5596 32.1704 25.8274 35.6401 24.8827 39.0359C24.4392 40.6454 23.7238 42.1673 22.7675 43.5357H39.4286C40.7896 43.5357 41.8929 42.4324 41.8929 41.0714V2.46429C41.8929 1.1033 40.7896 0 39.4286 0ZM30.3929 38.6071C30.3929 39.9681 29.2896 41.0714 27.9286 41.0714H27.0907C26.6371 41.0714 26.2693 40.7037 26.2693 40.25C26.2693 39.7963 26.6371 39.4286 27.0907 39.4286H27.9286C28.3822 39.4286 28.75 39.0608 28.75 38.6071V36.1429C28.75 35.6892 28.3822 35.3214 27.9286 35.3214C27.4716 35.3228 27.0984 34.9569 27.0907 34.5C27.087 34.2839 27.1701 34.0753 27.3214 33.9209C27.4727 33.7665 27.6795 33.6792 27.8957 33.6786H27.9286C29.2896 33.6786 30.3929 34.7819 30.3929 36.1429V38.6071ZM30.3929 29.5714C30.3929 30.9324 29.2896 32.0357 27.9286 32.0357H27.4111C26.9574 32.0357 26.5896 31.6679 26.5896 31.2143C26.5896 30.7606 26.9574 30.3929 27.4111 30.3929H27.9286C28.3822 30.3929 28.75 30.0251 28.75 29.5714V27.1071C28.75 26.6535 28.3822 26.2857 27.9286 26.2857H25.4643C25.2298 26.2855 25.007 26.3882 24.8548 26.5666C24.6665 26.7919 24.3724 26.8996 24.0832 26.8492C23.794 26.7987 23.5537 26.5979 23.4528 26.3222C23.3518 26.0466 23.4056 25.738 23.5939 25.5128C24.0571 24.9592 24.7425 24.6404 25.4643 24.6429H27.9286C29.2896 24.6429 30.3929 25.7462 30.3929 27.1071V29.5714ZM29.302 21.9182C28.6146 22.615 27.6752 23.005 26.6964 23H20.5357C20.0821 23 19.7143 22.6322 19.7143 22.1786C19.7143 21.7249 20.0821 21.3571 20.5357 21.3571H26.6964C27.8276 21.35 28.7428 20.4347 28.75 19.3036C28.75 18.7589 28.5336 18.2366 28.1485 17.8515C27.7634 17.4664 27.2411 17.25 26.6964 17.25H17.6607C16.5295 17.2572 15.6143 18.1724 15.6071 19.3036C15.6055 19.6286 15.6845 19.9489 15.8371 20.2359C15.9767 20.4941 15.9679 20.8072 15.814 21.0572C15.6601 21.3072 15.3845 21.4561 15.0911 21.4478C14.7977 21.4395 14.531 21.2753 14.3914 21.0171C13.7925 19.8722 13.8348 18.4976 14.5031 17.3917C15.1714 16.2859 16.3686 15.6092 17.6607 15.6071H26.6964C28.737 15.6094 30.3906 17.263 30.3929 19.3036C30.3969 20.2866 30.0035 21.2295 29.302 21.9182ZM39.4286 38.6071C39.4286 39.9681 38.3253 41.0714 36.9643 41.0714H34.5C33.139 41.0714 32.0357 39.9681 32.0357 38.6071V36.1429C32.0357 34.7819 33.139 33.6786 34.5 33.6786H36.9643C38.3253 33.6786 39.4286 34.7819 39.4286 36.1429V38.6071ZM39.4286 29.5714C39.4286 30.9324 38.3253 32.0357 36.9643 32.0357H34.5C33.139 32.0357 32.0357 30.9324 32.0357 29.5714V27.1071C32.0357 25.7462 33.139 24.6429 34.5 24.6429H36.9643C38.3253 24.6429 39.4286 25.7462 39.4286 27.1071V29.5714ZM39.4286 20.5357C39.4286 21.8967 38.3253 23 36.9643 23H34.5C33.139 23 32.0357 21.8967 32.0357 20.5357V18.0714C32.0357 16.7104 33.139 15.6071 34.5 15.6071H36.9643C38.3253 15.6071 39.4286 16.7104 39.4286 18.0714V20.5357ZM39.4286 11.5C39.4286 12.4073 38.693 13.1429 37.7857 13.1429H15.6071C14.6998 13.1429 13.9643 12.4073 13.9643 11.5V4.10714C13.9643 3.19982 14.6998 2.46429 15.6071 2.46429H37.7857C38.693 2.46429 39.4286 3.19982 39.4286 4.10714V11.5Z" fill="#346B04"/>
<path opacity="0.6" d="M15.6072 4.10718V11.5009H16.7621L20.7953 4.10718H15.6072Z" fill="#346B04"/>
<path opacity="0.6" d="M22.6665 4.10718L18.6333 11.5009H21.6907L25.7239 4.10718H22.6665Z" fill="#346B04"/>
</g>
<defs>
<clipPath id="clip0_116_949">
<rect width="46" height="46" fill="white"/>
</clipPath>
</defs>
</svg>
