<svg width="46" height="46" viewBox="0 0 46 46" fill="none" xmlns="http://www.w3.org/2000/svg">
<g clip-path="url(#clip0_116_985)">
<path opacity="0.6" d="M37.0756 43.5689C37.47 43.5689 37.8591 43.719 38.1552 44.0049C40.0477 45.8324 42.8082 46.4408 45.2623 45.6792C43.6829 42.389 43.4641 38.6195 44.688 35.1293C46.2069 30.7868 46.5875 26.4344 44.8589 22.0692C43.3402 18.2344 40.4095 15.0485 36.7005 13.2317C36.9287 14.4482 37.0437 15.6877 37.0437 16.9403C37.0438 22.257 34.9993 27.2576 31.2872 31.0209C27.5746 34.7847 22.598 36.9011 17.2741 36.9802C16.285 36.9957 15.3004 36.9375 14.3268 36.8092C17.2527 41.9379 22.7709 45.2781 28.8347 45.368C31.4873 45.409 34.0343 44.8533 36.4063 43.7206C36.6199 43.6184 36.8486 43.5689 37.0756 43.5689Z" fill="#346B04"/>
<path d="M17.318 0.00337988C7.87362 -0.18415 0.0227625 7.45618 -9.82455e-06 16.8985C-0.00558903 19.2054 0.444733 21.4421 1.33854 23.5467C1.35152 23.5774 1.36359 23.6083 1.37452 23.6397C2.59842 27.1299 2.37969 30.8993 0.800208 34.1897C3.25449 34.951 6.01472 34.3428 7.90732 32.5152C8.37358 32.0648 9.07121 31.9514 9.65623 32.231C12.0279 33.3637 14.5752 33.9212 17.2277 33.8786C26.5981 33.7395 33.9382 26.2992 33.9381 16.9401C33.9382 7.78535 26.4823 0.187608 17.318 0.00337988ZM7.91757 19.4701C6.56068 19.4701 5.46067 18.372 5.46067 17.0173C5.46067 15.6627 6.56068 14.5645 7.91757 14.5645C9.27446 14.5645 10.3745 15.6627 10.3745 17.0173C10.3744 18.372 9.27446 19.4701 7.91757 19.4701ZM16.9691 19.4701C15.6122 19.4701 14.5122 18.372 14.5122 17.0173C14.5122 15.6627 15.6122 14.5645 16.9691 14.5645C18.326 14.5645 19.426 15.6627 19.426 17.0173C19.426 18.372 18.326 19.4701 16.9691 19.4701ZM26.0207 19.4701C24.6638 19.4701 23.5638 18.372 23.5638 17.0173C23.5638 15.6627 24.6638 14.5645 26.0207 14.5645C27.3776 14.5645 28.4776 15.6627 28.4776 17.0173C28.4776 18.372 27.3776 19.4701 26.0207 19.4701Z" fill="#346B04"/>
</g>
<defs>
<clipPath id="clip0_116_985">
<rect width="46" height="46" fill="white"/>
</clipPath>
</defs>
</svg>
