<svg width="30" height="31" viewBox="0 0 30 31" fill="none" xmlns="http://www.w3.org/2000/svg">
<path d="M15 0.666748C12.0333 0.666748 9.13319 1.54648 6.66645 3.1947C4.19972 4.84293 2.27713 7.18561 1.14181 9.9265C0.00649932 12.6674 -0.290551 15.6834 0.288228 18.5931C0.867006 21.5028 2.29562 24.1756 4.3934 26.2734C6.49119 28.3711 9.16394 29.7998 12.0737 30.3785C14.9834 30.9573 17.9994 30.6603 20.7403 29.5249C23.4811 28.3896 25.8238 26.467 27.4721 24.0003C29.1203 21.5336 30 18.6335 30 15.6667C30 11.6885 28.4197 7.87319 25.6066 5.06015C22.7936 2.2471 18.9783 0.666748 15 0.666748V0.666748ZM23.6455 21.5372C23.2091 21.5986 21.075 21.5372 20.9642 21.5372C20.4125 21.5444 19.8802 21.3337 19.483 20.9508C19.033 20.5162 18.6307 20.0389 18.1909 19.5872C18.0613 19.4486 17.9205 19.3209 17.7699 19.2054C17.4188 18.9361 17.071 18.9957 16.9057 19.4116C16.7766 19.8593 16.6865 20.3172 16.6364 20.7804C16.6074 21.1997 16.3415 21.4622 15.871 21.4912C15.5796 21.5065 15.2881 21.5133 15 21.5048C13.9501 21.4991 12.9165 21.2438 11.9847 20.7599C10.9761 20.1985 10.0973 19.4307 9.40569 18.5065C8.26876 17.0543 7.36023 15.4588 6.54887 13.8139C6.50626 13.7304 5.67444 11.9611 5.65398 11.8775C5.57898 11.5997 5.65398 11.3321 5.8841 11.2383C6.03069 11.1821 8.7716 11.2383 8.81762 11.2383C9.02154 11.237 9.22061 11.3004 9.38607 11.4196C9.55153 11.5388 9.67481 11.7076 9.73808 11.9014C10.2452 13.1986 10.9389 14.4148 11.7972 15.5116C11.9174 15.6577 12.058 15.7858 12.2148 15.8917C12.4381 16.0452 12.6494 15.9923 12.7415 15.7332C12.8507 15.3761 12.9148 15.0068 12.9324 14.6338C12.9477 13.894 12.9324 13.4082 12.8915 12.6685C12.8642 12.1946 12.6972 11.7804 11.9983 11.6457C11.7835 11.6065 11.7648 11.4292 11.9028 11.252C12.1909 10.8855 12.5847 10.8258 13.0261 10.8037C13.6841 10.7662 14.3421 10.7917 15 10.8037H15.1432C15.4295 10.8026 15.7152 10.8318 15.9955 10.8906C16.1613 10.9245 16.3117 11.0109 16.4244 11.1372C16.5371 11.2634 16.6061 11.4226 16.621 11.5912C16.6549 11.7778 16.6692 11.9675 16.6636 12.1571C16.6466 12.9633 16.6074 13.7713 16.5989 14.5775C16.5909 14.8975 16.6201 15.2172 16.6858 15.5304C16.7796 15.9599 17.0744 16.0673 17.3676 15.7571C17.7476 15.3569 18.0958 14.9278 18.4091 14.4736C18.9644 13.6456 19.422 12.7562 19.7727 11.823C19.9636 11.344 20.1136 11.2383 20.625 11.2383H23.533C23.7059 11.2353 23.8783 11.2583 24.0443 11.3065C24.1031 11.322 24.1581 11.3494 24.2058 11.3871C24.2535 11.4247 24.2929 11.4718 24.3215 11.5254C24.3501 11.5791 24.3674 11.638 24.3722 11.6986C24.377 11.7592 24.3693 11.8201 24.3494 11.8775C24.2063 12.515 23.8619 13.0588 23.4972 13.5821C22.9057 14.419 22.2818 15.2355 21.6767 16.0622C21.6039 16.1691 21.5373 16.2801 21.4773 16.3946C21.2489 16.8071 21.2659 17.0372 21.5966 17.3781C22.125 17.9219 22.6892 18.4298 23.1989 18.9889C23.5727 19.3957 23.9103 19.8343 24.208 20.2997C24.571 20.8861 24.3409 21.4383 23.6455 21.5372Z" fill="#080A07"/>
</svg>
