<svg width="35" height="36" viewBox="0 0 35 36" fill="none" xmlns="http://www.w3.org/2000/svg">
<path d="M26.3667 11.5H8.63333C8.46536 11.5 8.30427 11.4473 8.1855 11.3536C8.06673 11.2598 8 11.1326 8 11C8 10.8674 8.06673 10.7402 8.1855 10.6464C8.30427 10.5527 8.46536 10.5 8.63333 10.5H26.3667C26.5346 10.5 26.6957 10.5527 26.8145 10.6464C26.9333 10.7402 27 10.8674 27 11C27 11.1326 26.9333 11.2598 26.8145 11.3536C26.6957 11.4473 26.5346 11.5 26.3667 11.5Z" fill="white"/>
<path d="M26.3667 18.5H8.63333C8.46536 18.5 8.30427 18.4473 8.1855 18.3536C8.06673 18.2598 8 18.1326 8 18C8 17.8674 8.06673 17.7402 8.1855 17.6464C8.30427 17.5527 8.46536 17.5 8.63333 17.5H26.3667C26.5346 17.5 26.6957 17.5527 26.8145 17.6464C26.9333 17.7402 27 17.8674 27 18C27 18.1326 26.9333 18.2598 26.8145 18.3536C26.6957 18.4473 26.5346 18.5 26.3667 18.5Z" fill="white"/>
<path d="M26.3667 25.5H8.63333C8.46536 25.5 8.30427 25.4473 8.1855 25.3536C8.06673 25.2598 8 25.1326 8 25C8 24.8674 8.06673 24.7402 8.1855 24.6464C8.30427 24.5527 8.46536 24.5 8.63333 24.5H26.3667C26.5346 24.5 26.6957 24.5527 26.8145 24.6464C26.9333 24.7402 27 24.8674 27 25C27 25.1326 26.9333 25.2598 26.8145 25.3536C26.6957 25.4473 26.5346 25.5 26.3667 25.5Z" fill="white"/>
<rect x="0.5" y="0.5" width="34" height="35" rx="4.5" stroke="#F4F4F4"/>
</svg>
