<svg width="58" height="38" viewBox="0 0 58 38" fill="none" xmlns="http://www.w3.org/2000/svg">
<path fill-rule="evenodd" clip-rule="evenodd" d="M40.7723 10.8242V30.0545C40.7723 30.627 41.235 31.0909 41.8059 31.0909H43.7584C43.6831 31.463 43.6436 31.848 43.6436 32.2424C43.6436 35.4222 46.2146 38 49.3861 38C52.5576 38 55.1287 35.4222 55.1287 32.2424C55.1287 31.848 55.0892 31.463 55.0139 31.0909H56.9663C57.5373 31.0909 58 30.627 58 30.0545V20.2659C58 20.0969 57.9588 19.9304 57.8799 19.7811L52.8944 10.3393C52.7152 10.0001 52.3637 9.78788 51.9809 9.78788H41.8059C41.235 9.78788 40.7723 10.2519 40.7723 10.8242ZM54.6509 29.9394H56.8515V20.2945L51.9117 10.9394H41.9208V29.9394H44.1213C45.0075 27.9059 47.0313 26.4848 49.3861 26.4848C51.7409 26.4848 53.7647 27.9059 54.6509 29.9394ZM39.1841 5.62266L42.495 2.30303L42.4961 2.30205L42.5344 2.26352L42.8594 1.93782L43.6715 2.75206L40.198 6.23454V24.297C40.198 25.1873 39.4781 25.9091 38.5901 25.9091H1.60792C0.719898 25.9091 0 25.1873 0 24.297V11.7599C0 10.9625 0.581492 10.2849 1.36794 10.1659L29.7456 5.71991L32.1197 1.04606C32.355 0.41685 32.955 0 33.6253 0H42.5344C43.967 0 44.6843 1.73648 43.6715 2.75206L42.8594 1.93782C43.1487 1.64766 42.9438 1.15152 42.5344 1.15152H42.075H42.0207H42.0193H33.6253C33.4338 1.15152 33.2624 1.27062 33.1952 1.45039L30.6789 6.50424C30.6205 6.66064 30.4821 6.77303 30.3174 6.79796L1.53935 11.3045C1.31466 11.3385 1.14851 11.5321 1.14851 11.7599V24.297C1.14851 24.5513 1.3542 24.7576 1.60792 24.7576H38.5901C38.8438 24.7576 39.0495 24.5513 39.0495 24.297V5.94837C39.0495 5.82621 39.0979 5.70905 39.1841 5.62266ZM13.7822 32.2424C13.7822 34.7862 11.7253 36.8485 9.18812 36.8485C6.65089 36.8485 4.59406 34.7862 4.59406 32.2424C4.59406 29.6986 6.65089 27.6364 9.18812 27.6364C11.7253 27.6364 13.7822 29.6986 13.7822 32.2424ZM14.9307 32.2424C14.9307 35.4222 12.3596 38 9.18812 38C6.01659 38 3.44554 35.4222 3.44554 32.2424C3.44554 29.0626 6.01659 26.4848 9.18812 26.4848C12.3596 26.4848 14.9307 29.0626 14.9307 32.2424ZM29.8614 36.8485C32.3986 36.8485 34.4554 34.7862 34.4554 32.2424C34.4554 29.6986 32.3986 27.6364 29.8614 27.6364C27.3242 27.6364 25.2673 29.6986 25.2673 32.2424C25.2673 34.7862 27.3242 36.8485 29.8614 36.8485ZM29.8614 38C33.0329 38 35.604 35.4222 35.604 32.2424C35.604 29.0626 33.0329 26.4848 29.8614 26.4848C26.6899 26.4848 24.1188 29.0626 24.1188 32.2424C24.1188 35.4222 26.6899 38 29.8614 38ZM53.9802 32.2424C53.9802 34.7862 51.9233 36.8485 49.3861 36.8485C46.849 36.8485 44.7921 34.7862 44.7921 32.2424C44.7921 29.6986 46.849 27.6364 49.3861 27.6364C51.9233 27.6364 53.9802 29.6986 53.9802 32.2424Z" fill="white"/>
</svg>
