<svg width="29" height="30" viewBox="0 0 29 30" fill="none" xmlns="http://www.w3.org/2000/svg">
<path fill-rule="evenodd" clip-rule="evenodd" d="M23.0056 16.3484L18.4407 19.0766V0H27.2498C27.715 0.00464421 28.1596 0.198827 28.4872 0.540427C28.8149 0.882026 28.9991 1.34349 29 1.82472V12.766L23.0056 16.3484Z" fill="#FE5000"/>
<path fill-rule="evenodd" clip-rule="evenodd" d="M13.21 23.7988L10.5761 19.0764H28.9995V28.1894C28.9942 28.6679 28.8081 29.1253 28.481 29.4636C28.1539 29.802 27.7118 29.9945 27.2493 30H16.6729L13.21 23.7988Z" fill="#FE5000"/>
<path fill-rule="evenodd" clip-rule="evenodd" d="M6.00467 13.6654L10.5764 10.9407V29.9996H1.76046C1.29587 29.9978 0.850665 29.8068 0.521192 29.4679C0.191719 29.1291 0.00448111 28.6696 0 28.189L0 17.2478L6.00467 13.6654Z" fill="#FE5000"/>
<path fill-rule="evenodd" clip-rule="evenodd" d="M15.8032 6.21181L18.4405 10.9413H0V1.82472C0.000901701 1.34106 0.187027 0.877477 0.517622 0.535478C0.848217 0.193479 1.29634 0.000932807 1.76387 0L12.3403 0L15.8032 6.21181Z" fill="#FE5000"/>
</svg>
