<svg width="34" height="36" viewBox="0 0 34 36" fill="none" xmlns="http://www.w3.org/2000/svg">
<path d="M25.5091 26H23.3818V11.1667C23.3818 10.8572 23.2611 10.5605 23.0463 10.3417C22.8315 10.1229 22.5402 10 22.2364 10H11.7636C11.4598 10 11.1685 10.1229 10.9537 10.3417C10.7389 10.5605 10.6182 10.8572 10.6182 11.1667V26H8.49091C8.36071 26 8.23585 26.0527 8.14378 26.1464C8.05172 26.2402 8 26.3674 8 26.5C8 26.6326 8.05172 26.7598 8.14378 26.8536C8.23585 26.9473 8.36071 27 8.49091 27H25.5091C25.6393 27 25.7642 26.9473 25.8562 26.8536C25.9483 26.7598 26 26.6326 26 26.5C26 26.3674 25.9483 26.2402 25.8562 26.1464C25.7642 26.0527 25.6393 26 25.5091 26ZM11.6 11.1667C11.6 11.1225 11.6172 11.0801 11.6479 11.0488C11.6786 11.0176 11.7202 11 11.7636 11H22.2364C22.2798 11 22.3214 11.0176 22.3521 11.0488C22.3828 11.0801 22.4 11.1225 22.4 11.1667V26H11.6V11.1667ZM20.1091 18.5C20.1091 18.6648 20.0611 18.8259 19.9712 18.963C19.8813 19.1 19.7535 19.2068 19.604 19.2699C19.4545 19.333 19.29 19.3495 19.1313 19.3173C18.9726 19.2852 18.8268 19.2058 18.7124 19.0893C18.5979 18.9727 18.52 18.8242 18.4884 18.6626C18.4569 18.5009 18.4731 18.3334 18.535 18.1811C18.5969 18.0288 18.7018 17.8987 18.8364 17.8071C18.9709 17.7155 19.1291 17.6667 19.2909 17.6667C19.5079 17.6667 19.716 17.7545 19.8695 17.9107C20.0229 18.067 20.1091 18.279 20.1091 18.5Z" fill="white"/>
<rect x="0.5" y="0.5" width="33" height="35" rx="4.5" stroke="#F4F4F4"/>
</svg>
