<svg width="24" height="24" viewBox="0 0 24 24" fill="none" xmlns="http://www.w3.org/2000/svg">
<path d="M11.9993 21.933C11.7306 21.9343 11.4654 21.8725 11.225 21.7524C10.9846 21.6324 10.7757 21.4576 10.6153 21.242L5.5543 14.5C4.71691 13.3191 4.22038 11.9307 4.11899 10.4866C4.01761 9.04253 4.31529 7.59836 4.97946 6.31206C5.64364 5.02576 6.64874 3.94687 7.88484 3.19338C9.12095 2.43988 10.5404 2.04081 11.9881 2.0398C13.4358 2.03879 14.8558 2.43588 16.093 3.18764C17.3301 3.93941 18.3367 5.0169 19.0027 6.30227C19.6687 7.58764 19.9684 9.03139 19.869 10.4756C19.7696 11.9199 19.275 13.309 18.4393 14.491L13.3843 21.24C13.2239 21.456 13.0149 21.6312 12.7744 21.7515C12.5338 21.8719 12.2683 21.9341 11.9993 21.933ZM11.9913 3.06603C10.3011 3.06072 8.66938 3.68412 7.4133 4.81503C6.1537 5.93973 5.35091 7.48778 5.15735 9.1653C4.96379 10.8428 5.39293 12.533 6.3633 13.915L11.4143 20.642C11.482 20.733 11.5701 20.8068 11.6716 20.8575C11.773 20.9082 11.8849 20.9344 11.9983 20.934C12.1119 20.9342 12.2241 20.9079 12.3258 20.8572C12.4275 20.8065 12.516 20.7328 12.5843 20.642L17.6283 13.908C18.3165 12.9342 18.7395 11.798 18.8558 10.6112C18.9721 9.4244 18.7776 8.22775 18.2915 7.13883C17.8054 6.04992 17.0444 5.10619 16.0832 4.40036C15.122 3.69454 13.9938 3.2509 12.8093 3.11303C12.5377 3.08201 12.2646 3.06632 11.9913 3.06603Z" fill="#F4F4F4"/>
<path d="M12 12.5C11.5055 12.5 11.0222 12.3534 10.6111 12.0787C10.2 11.804 9.87952 11.4135 9.6903 10.9567C9.50108 10.4999 9.45157 9.99723 9.54804 9.51228C9.6445 9.02732 9.8826 8.58187 10.2322 8.23223C10.5819 7.8826 11.0273 7.6445 11.5123 7.54804C11.9972 7.45157 12.4999 7.50108 12.9567 7.6903C13.4135 7.87952 13.804 8.19995 14.0787 8.61108C14.3534 9.0222 14.5 9.50555 14.5 10C14.5 10.663 14.2366 11.2989 13.7678 11.7678C13.2989 12.2366 12.663 12.5 12 12.5ZM12 8.5C11.7033 8.5 11.4133 8.58797 11.1666 8.7528C10.92 8.91762 10.7277 9.15189 10.6142 9.42598C10.5007 9.70007 10.4709 10.0017 10.5288 10.2926C10.5867 10.5836 10.7296 10.8509 10.9393 11.0607C11.1491 11.2704 11.4164 11.4133 11.7074 11.4712C11.9983 11.5291 12.2999 11.4994 12.574 11.3858C12.8481 11.2723 13.0824 11.08 13.2472 10.8334C13.412 10.5867 13.5 10.2967 13.5 10C13.5 9.60218 13.342 9.22065 13.0607 8.93934C12.7794 8.65804 12.3978 8.5 12 8.5Z" fill="#F4F4F4"/>
</svg>
