<svg width="27" height="72" viewBox="0 0 27 72" fill="none" xmlns="http://www.w3.org/2000/svg">
<path d="M13.5 54.7826C13.2666 54.783 13.0411 54.6858 12.8668 54.5095L7.16774 48.8467C7.07418 48.7523 6.99793 48.638 6.94332 48.5101C6.88871 48.3823 6.85682 48.2436 6.84947 48.1017C6.84212 47.9599 6.85945 47.8179 6.90048 47.6837C6.94151 47.5495 7.00542 47.4258 7.08858 47.3196C7.17174 47.2134 7.27251 47.1269 7.38514 47.0649C7.49776 47.0029 7.62004 46.9668 7.74499 46.9584C7.86995 46.9501 7.99512 46.9697 8.11338 47.0163C8.23163 47.0629 8.34064 47.1354 8.4342 47.2298L14.1333 52.8926C14.2277 52.9848 14.305 53.0972 14.3609 53.2235C14.4168 53.3498 14.4502 53.4873 14.459 53.6283C14.4678 53.7692 14.452 53.9108 14.4124 54.0448C14.3728 54.1787 14.3102 54.3025 14.2283 54.4089C14.1375 54.5267 14.0256 54.6211 13.8999 54.6856C13.7743 54.75 13.6379 54.7831 13.5 54.7826Z" fill="#FFD815"/>
<path d="M13.4997 54.7826C13.3056 54.7846 13.1156 54.7191 12.9553 54.5948C12.7951 54.4706 12.6722 54.2937 12.6032 54.0878C12.5342 53.8819 12.5225 53.657 12.5695 53.4433C12.6166 53.2296 12.7202 53.0374 12.8664 52.8926L18.5655 47.2298C18.659 47.1354 18.7681 47.0629 18.8863 47.0163C19.0046 46.9697 19.1297 46.9501 19.2547 46.9584C19.3796 46.9668 19.5019 47.0029 19.6146 47.0649C19.7272 47.1269 19.8279 47.2134 19.9111 47.3196C19.9943 47.4258 20.0582 47.5495 20.0992 47.6837C20.1402 47.8179 20.1576 47.9599 20.1502 48.1017C20.1429 48.2436 20.111 48.3823 20.0564 48.5101C20.0018 48.638 19.9255 48.7523 19.832 48.8467L14.1329 54.5095C13.9595 54.6876 13.7335 54.785 13.4997 54.7826Z" fill="#FFD815"/>
<path d="M13.5 16C13.1022 16 12.7206 15.8799 12.4393 15.6662C12.158 15.4525 12 15.1626 12 14.8604V9.1396C12 8.83736 12.158 8.5475 12.4393 8.33378C12.7206 8.12007 13.1022 8 13.5 8C13.8978 8 14.2794 8.12007 14.5607 8.33378C14.842 8.5475 15 8.83736 15 9.1396V14.8604C15 15.1626 14.842 15.4525 14.5607 15.6662C14.2794 15.8799 13.8978 16 13.5 16Z" fill="#FFD815"/>
<rect x="1.5" y="1.5" width="24" height="40" rx="12" stroke="#FFD815" stroke-width="3"/>
</svg>
