<svg width="17" height="17" viewBox="0 0 17 17" fill="none" xmlns="http://www.w3.org/2000/svg">
<path fill-rule="evenodd" clip-rule="evenodd" d="M10.7003 11.7355C9.38477 12.7866 7.71676 13.2941 6.0388 13.1537C4.36085 13.0134 2.80032 12.2358 1.67774 10.9807C0.55515 9.72565 -0.0442827 8.08834 0.00255139 6.40508C0.0493855 4.72182 0.738931 3.12038 1.92957 1.92968C3.12021 0.738974 4.72155 0.0493883 6.40471 0.00255154C8.08788 -0.0442852 9.72509 0.555182 10.9801 1.67783C12.2351 2.80048 13.0126 4.3611 13.153 6.03915C13.2933 7.7172 12.7859 9.38531 11.7348 10.7009L16.767 15.7324C16.8389 15.7994 16.8966 15.8802 16.9366 15.97C16.9766 16.0598 16.9982 16.1568 16.9999 16.255C17.0016 16.3533 16.9835 16.451 16.9467 16.5421C16.9099 16.6333 16.8551 16.7161 16.7856 16.7856C16.7161 16.8551 16.6333 16.9099 16.5422 16.9467C16.451 16.9835 16.3534 17.0016 16.2551 16.9999C16.1568 16.9981 16.0599 16.9766 15.9701 16.9366C15.8803 16.8966 15.7995 16.8389 15.7325 16.767L10.7003 11.7355ZM2.96453 10.2109C2.2482 9.49444 1.76031 8.5817 1.56253 7.58802C1.36476 6.59435 1.46597 5.56435 1.85338 4.62818C2.24079 3.69202 2.897 2.89172 3.7391 2.32842C4.58119 1.76512 5.57135 1.46411 6.58446 1.46343C7.59757 1.46275 8.58814 1.76243 9.43099 2.32459C10.2738 2.88675 10.9311 3.68617 11.3198 4.62181C11.7085 5.55745 11.8111 6.58732 11.6146 7.58126C11.4182 8.5752 10.9315 9.48859 10.2162 10.206L10.2113 10.2109L10.2064 10.2148C9.24514 11.1739 7.94251 11.7122 6.58466 11.7114C5.2268 11.7107 3.92476 11.171 2.96453 10.2109Z" fill="white"/>
</svg>
