<svg width="31" height="31" viewBox="0 0 31 31" fill="none" xmlns="http://www.w3.org/2000/svg">
<g clip-path="url(#clip0)">
<path d="M30.1562 22.7509L25.8301 18.4247C24.2851 16.8797 21.6585 17.4978 21.0404 19.5063C20.5769 20.8969 19.0319 21.6694 17.6413 21.3603C14.5512 20.5878 10.3796 16.5707 9.60707 13.3261C9.14355 11.9355 10.0706 10.3904 11.4611 9.92695C13.4697 9.30893 14.0877 6.68235 12.5427 5.13729L8.21652 0.811152C6.98048 -0.270384 5.12642 -0.270384 4.04489 0.811152L1.10929 3.74675C-1.82631 6.83685 1.4183 15.0256 8.68004 22.2874C15.9418 29.5491 24.1305 32.9483 27.2206 29.8581L30.1562 26.9225C31.2378 25.6865 31.2378 23.8324 30.1562 22.7509Z" fill="white"/>
</g>
<defs>
<clipPath id="clip0">
<rect width="31" height="31" fill="white"/>
</clipPath>
</defs>
</svg>
