<svg width="194" height="50" viewBox="0 0 194 50" fill="none" xmlns="http://www.w3.org/2000/svg">
<g clip-path="url(#clip0_1_856)">
<path d="M72.0363 0H58.9261V49.8293H72.0363V0Z" fill="#20408B"/>
<path d="M98.5827 14.9497H85.4725V49.8307H98.5827V14.9497Z" fill="#20408B"/>
<path d="M118.753 8.05566H105.642V44.7884H118.753V8.05566Z" fill="#20408B"/>
<path d="M113.371 0L105.642 7.63752V12.9553H139.465V0H113.371Z" fill="#20408B"/>
<path d="M105.642 36.8753V49.8306H139.465V36.8753H105.642Z" fill="#20408B"/>
<path d="M58.925 0.00123787V12.9565L98.5816 12.9565V0.00123787L58.925 0.00123787Z" fill="#20408B"/>
<path d="M145.525 49.8291H158.636V-0.00019455H145.525V49.8291Z" fill="#20408B"/>
<path d="M173.236 0L145.624 22.2196L153.902 32.2662L194 0H173.236Z" fill="#20408B"/>
<path d="M170.224 21.4678L160.058 29.6479L160.672 30.3929L160.635 30.4223L176.711 49.931H193.618L170.224 21.4678Z" fill="#F6A23D"/>
<path d="M0.498779 31.0598L7.5927 23.541H26.6219L18.8919 31.0598H0.498779Z" fill="#20408B"/>
<path d="M19.1345 49.5059V31.0598L26.8656 23.541V42.1374L19.1345 49.5059Z" fill="#202447"/>
<path d="M19.1357 31.0601H0.291748V49.6813H19.1357V31.0601Z" fill="#3F66AE"/>
<path d="M27.1219 23.4351L7.5927 23.5413H7.48974L0 30.9821V50.0002H19.3907L27.1219 42.2157V23.4351ZM0.849989 30.8374L7.69795 24.0342L26.2513 23.9336L19.0441 30.8386L0.849989 30.8374ZM0.498782 49.5062V31.3315H18.8919V49.5062H0.498782ZM26.6219 42.0122L19.3907 49.158V31.189L19.5177 31.0681L26.6219 24.2671V42.0122Z" fill="#202447"/>
<path d="M24.3397 31.0598L31.4324 23.541H50.4628L42.7317 31.0598H24.3397Z" fill="#DD8A2F"/>
<path d="M42.9753 49.5059V31.0598L50.7053 23.541V42.1374L42.9753 49.5059Z" fill="#D27518"/>
<path d="M42.9754 31.0601H24.1315V49.6813H42.9754V31.0601Z" fill="#F6A23D"/>
<path d="M50.9616 23.4351L31.4324 23.5413H31.3295L23.8397 30.981V50.0002H43.2316L50.9616 42.2157V23.4351ZM24.6897 30.8374L31.5377 24.0342L50.091 23.9336L42.8838 30.8386L24.6897 30.8374ZM24.3396 49.5062V31.3315H42.7317V49.5062H24.3396ZM50.4628 42.0122L43.2316 49.158V31.189L43.3574 31.0681L50.4628 24.2671V42.0122Z" fill="#D17519"/>
<path d="M0.498779 7.62527L7.5927 0.106445H26.6219L18.8919 7.62527H0.498779Z" fill="#20408B"/>
<path d="M19.1345 26.0713V7.62527L26.8656 0.106445V18.7028L19.1345 26.0713Z" fill="#202447"/>
<path d="M19.1357 7.625H0.291748V26.2463H19.1357V7.625Z" fill="#3F66AE"/>
<path d="M27.1219 0L7.5927 0.106265H7.48974L0 7.54708V26.5663H19.3907L27.1219 18.7829V0ZM0.849989 7.40238L7.69795 0.599154L26.2513 0.498542L19.0441 7.40238H0.849989ZM0.498782 26.0711V7.8964H18.8919V26.0711H0.498782ZM26.6219 18.576L19.3907 25.7218V7.75396L19.5177 7.633L26.6219 0.830903V18.576Z" fill="#202447"/>
<path d="M24.3397 7.62527L31.4324 0.106445H50.4628L42.7317 7.62527H24.3397Z" fill="#20408B"/>
<path d="M42.9753 26.0713V7.62527L50.7053 0.106445V18.7028L42.9753 26.0713Z" fill="#202447"/>
<path d="M42.9754 7.625H24.1315V26.2463H42.9754V7.625Z" fill="#3F66AE"/>
<path d="M50.9616 0L31.4324 0.106265H31.3295L23.8397 7.54708V26.5663H43.2316L50.9616 18.7829V0ZM24.6897 7.40238L31.5377 0.599154L50.091 0.498542L42.8838 7.40238H24.6897ZM24.3396 26.0711V7.8964H42.7317V26.0711H24.3396ZM50.4628 18.576L43.2316 25.7218V7.75396L43.3574 7.633L50.4628 0.830903V18.576Z" fill="#202447"/>
</g>
<defs>
<clipPath id="clip0_1_856">
<rect width="194" height="50" fill="white"/>
</clipPath>
</defs>
</svg>
