<svg width="200" height="200" viewBox="0 0 200 200" fill="none" xmlns="http://www.w3.org/2000/svg">
<path d="M170.02 75.5164H120.098V69.5316C120.098 63.1089 114.989 58 108.567 58H90.7584C84.3357 58 79.2268 63.1089 79.2268 69.5316V75.5164H29.3051C21.4227 75.5164 15 81.9391 15 89.8214V166.164C15 174.046 21.4227 180.469 29.3051 180.469H169.874C177.756 180.469 184.179 174.046 184.179 166.164V89.8214C184.325 81.9391 177.902 75.5164 170.02 75.5164ZM85.0656 69.5316C85.0656 66.3203 87.693 63.8388 90.7584 63.8388H108.567C111.778 63.8388 114.26 66.4663 114.26 69.5316V75.5164H85.0656V69.5316ZM178.486 166.31C178.486 170.981 174.691 174.776 170.02 174.776H29.3051C26.3857 174.776 23.7582 173.316 22.1525 170.981C21.2767 169.667 20.6928 168.061 20.6928 166.31V107.192L98.6408 130.839C99.0787 130.985 99.3706 130.985 99.6625 130.985C99.9545 130.985 100.246 130.985 100.538 130.839L178.486 107.192V166.31ZM178.486 101.061L99.6625 125L20.8388 101.061V89.8214C20.8388 85.1504 24.634 81.3552 29.3051 81.3552H169.874C174.545 81.3552 178.34 85.1504 178.34 89.8214V101.061H178.486Z" fill="#121E4B"/>
<path d="M108.421 98.8716H90.9043C87.693 98.8716 85.0656 101.499 85.0656 104.71V107.63C85.0656 110.841 87.693 113.469 90.9043 113.469H108.421C111.632 113.469 114.26 110.841 114.26 107.63V104.71C114.26 101.499 111.632 98.8716 108.421 98.8716ZM108.421 107.63H90.9043V104.71H108.421V107.63Z" fill="#121E4B"/>
</svg>
