<svg width="200" height="200" viewBox="0 0 200 200" fill="none" xmlns="http://www.w3.org/2000/svg">
<path d="M109.019 105.875C109.019 107.594 107.613 109 105.894 109H43.3942C41.6754 109 40.2692 107.594 40.2692 105.875C40.2692 104.156 41.6754 102.75 43.3942 102.75H105.894C107.613 102.75 109.019 104.156 109.019 105.875Z" fill="#121E4B"/>
<path d="M109.019 124.625C109.019 126.344 107.613 127.75 105.894 127.75H43.3942C41.6754 127.75 40.2692 126.344 40.2692 124.625C40.2692 122.906 41.6754 121.5 43.3942 121.5H105.894C107.613 121.5 109.019 122.906 109.019 124.625Z" fill="#121E4B"/>
<path d="M109.019 143.375C109.019 145.094 107.613 146.5 105.894 146.5H43.3942C41.6754 146.5 40.2692 145.094 40.2692 143.375C40.2692 141.656 41.6754 140.25 43.3942 140.25H105.894C107.613 140.25 109.019 141.656 109.019 143.375Z" fill="#121E4B"/>
<path d="M182.496 105.641C187.574 96.1484 190.269 85.4844 190.269 74.625C190.269 38.4531 160.816 9 124.644 9C93.7066 9 67.1051 30.5625 60.5426 60.5234C31.0894 67.0078 9.01912 93.2969 9.01912 124.625C9.01912 135.445 11.7144 146.148 16.7926 155.641L9.09725 186.383C8.82381 187.438 9.13631 188.57 9.91756 189.352C10.5035 189.938 11.3238 190.25 12.1441 190.25C12.4176 190.25 12.6519 190.211 12.8863 190.172L43.6285 182.477C53.1207 187.555 63.8238 190.25 74.6441 190.25C105.972 190.25 132.261 168.141 138.746 138.727C144.644 137.438 150.308 135.328 155.66 132.477L186.402 140.172C186.636 140.25 186.91 140.25 187.144 140.25C187.964 140.25 188.746 139.938 189.371 139.352C190.152 138.57 190.464 137.438 190.191 136.383L182.496 105.641ZM74.6441 184C64.4879 184 54.4097 181.383 45.6207 176.422C45.1519 176.148 44.6051 176.031 44.0972 176.031C43.8238 176.031 43.5894 176.07 43.3551 176.109L16.441 182.828L23.1597 155.953C23.3551 155.172 23.2379 154.352 22.8472 153.648C17.8863 144.859 15.2691 134.781 15.2691 124.625C15.2691 91.8906 41.9097 65.25 74.6441 65.25C107.378 65.25 134.019 91.8906 134.019 124.625C134.019 157.359 107.378 184 74.6441 184ZM155.972 126.109C155.191 125.914 154.371 126.031 153.668 126.422C149.293 128.883 144.644 130.758 139.839 132.008C140.113 129.586 140.269 127.125 140.269 124.625C140.269 88.4531 110.816 59 74.6441 59C72.1441 59 69.6832 59.1563 67.2222 59.4297C74.0582 33.5703 97.4957 15.25 124.644 15.25C157.378 15.25 184.019 41.8906 184.019 74.625C184.019 84.7812 181.402 94.8594 176.441 103.688C176.05 104.391 175.933 105.211 176.128 105.992L182.847 132.828L155.972 126.109Z" fill="#121E4B"/>
</svg>
