<svg width="200" height="200" viewBox="0 0 200 200" fill="none" xmlns="http://www.w3.org/2000/svg">
<path d="M164.727 57.1484L117.852 10.2734C117.266 9.6875 116.484 9.375 115.625 9.375H37.5C35.7812 9.375 34.375 10.7812 34.375 12.5V187.5C34.375 189.219 35.7812 190.625 37.5 190.625H162.5C164.219 190.625 165.625 189.219 165.625 187.5V59.375C165.625 58.5547 165.312 57.7344 164.727 57.1484ZM118.75 20.0391L154.961 56.2109H118.75V20.0391ZM159.375 184.375H40.625V15.625H112.5V59.375C112.5 61.0938 113.906 62.5 115.625 62.5H159.375V184.375Z" fill="#121E4B"/>
<path d="M138.281 85.9375C138.281 87.6562 136.875 89.0625 135.156 89.0625H64.8438C63.125 89.0625 61.7188 87.6562 61.7188 85.9375C61.7188 84.2188 63.125 82.8125 64.8438 82.8125H135.156C136.875 82.8125 138.281 84.2188 138.281 85.9375Z" fill="#121E4B"/>
<path d="M138.281 104.688C138.281 106.406 136.875 107.812 135.156 107.812H64.8438C63.125 107.812 61.7188 106.406 61.7188 104.688C61.7188 102.969 63.125 101.562 64.8438 101.562H135.156C136.875 101.562 138.281 102.969 138.281 104.688Z" fill="#121E4B"/>
<path d="M138.281 123.438C138.281 125.156 136.875 126.562 135.156 126.562H64.8438C63.125 126.562 61.7188 125.156 61.7188 123.438C61.7188 121.719 63.125 120.312 64.8438 120.312H135.156C136.875 120.312 138.281 121.719 138.281 123.438Z" fill="#121E4B"/>
<path d="M138.281 142.188C138.281 143.906 136.875 145.312 135.156 145.312H64.8438C63.125 145.312 61.7188 143.906 61.7188 142.188C61.7188 140.469 63.125 139.062 64.8438 139.062H135.156C136.875 139.062 138.281 140.469 138.281 142.188Z" fill="#121E4B"/>
<path d="M138.281 160.938C138.281 162.656 136.875 164.062 135.156 164.062H64.8438C63.125 164.062 61.7188 162.656 61.7188 160.938C61.7188 159.219 63.125 157.812 64.8438 157.812H135.156C136.875 157.812 138.281 159.219 138.281 160.938Z" fill="#121E4B"/>
</svg>
