<svg width="167" height="167" viewBox="0 0 167 167" fill="none" xmlns="http://www.w3.org/2000/svg">
<path d="M100.22 19C73.537 19 52.1289 40.7184 52.1289 67.0907C52.1289 79.1909 56.7828 90.3604 64.2291 98.7375L54.611 108.356C50.8878 106.494 46.2339 107.115 43.4415 110.217L21.1026 132.556C18.9308 134.418 18 136.9 18 139.382C18 141.864 18.9308 144.346 20.7924 146.208C22.6539 148.069 25.136 149 27.6181 149C30.1002 149 32.5823 148.069 34.4439 146.208L56.7828 123.869C58.6444 122.007 59.5752 119.525 59.5752 117.043C59.5752 115.492 59.2649 113.94 58.6444 112.699L68.2625 103.081C76.9499 110.838 88.1193 115.181 100.22 115.181C126.592 115.181 148.31 93.7733 148.31 67.0907C148.31 40.4081 126.592 19 100.22 19ZM52.7494 119.835L30.4105 142.174C29.1695 143.415 26.6874 143.415 25.136 142.174C24.5155 141.554 24.2053 140.623 24.2053 139.692C24.2053 138.761 24.5155 137.831 25.136 137.21L47.4749 114.871C48.0955 114.251 49.0262 113.94 49.957 113.94C50.8878 113.94 51.8186 114.251 52.4391 114.871C53.0597 115.492 53.3699 116.422 53.3699 117.353C53.3699 118.284 53.3699 118.905 52.7494 119.835ZM100.22 108.976C76.9499 108.976 58.3341 90.3604 58.3341 67.0907C58.3341 43.821 76.9499 25.2053 100.22 25.2053C123.179 25.2053 142.105 44.1313 142.105 67.0907C142.105 90.0501 123.179 108.976 100.22 108.976Z" fill="#121E4B"/>
<path d="M100.22 29.8594C79.7422 29.8594 62.988 46.6136 62.988 67.0909C62.988 87.5682 79.7422 104.322 100.22 104.322C120.697 104.322 137.451 87.5682 137.451 67.0909C137.451 46.6136 120.697 29.8594 100.22 29.8594ZM100.22 98.1171C83.1551 98.1171 69.1933 84.1553 69.1933 67.0909C69.1933 50.0264 83.1551 36.0646 100.22 36.0646C117.284 36.0646 131.246 50.0264 131.246 67.0909C131.246 84.1553 117.284 98.1171 100.22 98.1171Z" fill="#121E4B"/>
<path d="M85.327 45.372C78.191 50.026 73.8473 58.4031 73.8473 67.0904C73.8473 68.952 75.0883 70.193 76.9499 70.193C78.8115 70.193 80.0525 68.952 80.0525 67.0904C80.0525 60.2646 83.4654 54.0594 89.0502 50.3362C90.6015 49.4055 90.9117 47.5439 89.9809 45.9926C89.0502 44.4413 86.8783 44.4413 85.327 45.372Z" fill="#121E4B"/>
<path d="M100.22 40.7183C98.9785 40.7183 97.7374 40.7183 96.4964 41.0285C94.9451 41.3388 93.704 42.8901 94.0143 44.4414C94.3246 45.9927 95.5656 47.2338 97.1169 47.2338H97.4272C98.358 47.2338 99.2888 46.9235 100.22 46.9235C102.081 46.9235 103.322 45.6825 103.322 43.8209C103.322 41.9593 101.771 40.7183 100.22 40.7183Z" fill="#121E4B"/>
</svg>
