<svg width="22" height="18" viewBox="0 0 22 18" fill="none" xmlns="http://www.w3.org/2000/svg">
<path d="M21.6563 9C21.6563 8.87568 21.6069 8.75645 21.519 8.66854C21.4311 8.58063 21.3118 8.53125 21.1875 8.53125L1.69923 8.53125L9.32813 0.890624C9.37208 0.84802 9.40701 0.797021 9.43087 0.740655C9.45473 0.684291 9.46703 0.623706 9.46703 0.562499C9.46703 0.501292 9.45473 0.440709 9.43087 0.384343C9.40701 0.327979 9.37208 0.276981 9.32813 0.234374C9.28553 0.190431 9.23453 0.155494 9.17816 0.131635C9.1218 0.107776 9.06121 0.0954811 9.00001 0.0954811C8.9388 0.0954811 8.87822 0.107776 8.82185 0.131635C8.76549 0.155494 8.71449 0.190431 8.67188 0.234374L0.234382 8.67187C0.190439 8.71448 0.155501 8.76548 0.131642 8.82184C0.107783 8.87821 0.0954887 8.93879 0.0954887 9C0.0954887 9.06121 0.107783 9.12179 0.131642 9.17815C0.155501 9.23452 0.190439 9.28552 0.234382 9.32812L8.67188 17.7656C8.76215 17.8333 8.87381 17.8662 8.98636 17.8582C9.09891 17.8502 9.2048 17.8019 9.28459 17.7221C9.36438 17.6423 9.41271 17.5364 9.4207 17.4239C9.4287 17.3113 9.39584 17.1996 9.32814 17.1094L1.69923 9.46875L21.1875 9.46875C21.3118 9.46875 21.4311 9.41936 21.519 9.33145C21.6069 9.24355 21.6563 9.12432 21.6563 9Z" fill="#1F408C"/>
</svg>
