<svg width="15" height="20" viewBox="0 0 15 20" fill="none" xmlns="http://www.w3.org/2000/svg">
<path d="M6.57471 19.5C4.53564 16.9922 0.000488281 10.9141 0.000488281 7.5C0.000488281 3.35781 3.3583 0 7.50049 0C11.6411 0 15.0005 3.35781 15.0005 7.5C15.0005 10.9141 10.4302 16.9922 8.42627 19.5C7.9458 20.0977 7.05518 20.0977 6.57471 19.5ZM7.50049 10C8.87939 10 10.0005 8.87891 10.0005 7.5C10.0005 6.12109 8.87939 5 7.50049 5C6.12158 5 5.00049 6.12109 5.00049 7.5C5.00049 8.87891 6.12158 10 7.50049 10Z" fill="#FFA53A"/>
</svg>
