<svg width="22" height="18" viewBox="0 0 22 18" fill="none" xmlns="http://www.w3.org/2000/svg">
<path d="M0.0937698 9C0.0937699 8.87568 0.143155 8.75645 0.231063 8.66854C0.318971 8.58063 0.438199 8.53125 0.56252 8.53125L20.0508 8.53125L12.4219 0.890624C12.378 0.84802 12.343 0.797021 12.3192 0.740655C12.2953 0.684291 12.283 0.623706 12.283 0.562499C12.283 0.501292 12.2953 0.440709 12.3192 0.384343C12.343 0.327979 12.378 0.276981 12.4219 0.234374C12.4645 0.190431 12.5155 0.155494 12.5719 0.131635C12.6282 0.107776 12.6888 0.0954811 12.75 0.0954811C12.8112 0.0954811 12.8718 0.107776 12.9282 0.131635C12.9845 0.155494 13.0355 0.190431 13.0781 0.234374L21.5156 8.67187C21.5596 8.71448 21.5945 8.76548 21.6184 8.82184C21.6422 8.87821 21.6545 8.93879 21.6545 9C21.6545 9.06121 21.6422 9.12179 21.6184 9.17815C21.5945 9.23452 21.5596 9.28552 21.5156 9.32812L13.0781 17.7656C12.9879 17.8333 12.8762 17.8662 12.7637 17.8582C12.6511 17.8502 12.5452 17.8019 12.4654 17.7221C12.3857 17.6423 12.3373 17.5364 12.3293 17.4239C12.3213 17.3113 12.3542 17.1996 12.4219 17.1094L20.0508 9.46875L0.56252 9.46875C0.438199 9.46875 0.31897 9.41936 0.231063 9.33145C0.143155 9.24355 0.0937698 9.12432 0.0937698 9Z" fill="#1F408C"/>
</svg>
